.
 
http://www.scenetime.com    -   SceneTime [ We been having it ] !!!


How come you press harder on a remote control when you know the battery is dead? so you better seed to get speed ;)

        Seed back for speed


...................................NFO:.................................................[img]http://img687.imageshack.us/img687/110/britishmoviesubmarineuk.jpg[/img]

[color=blue][size=5][b]Submarine.2010.DVDRip.XVID.AC3.HQ.Hive-CM8[/b][/size][/color]


[b]Thx Hive

CM8 Doing It Right The First Time :D

Source: R2 DVD-9

Encode:

first with a nice quality rip :D 
did the usual,brightness,sharpness,rgb, denoise
enjoy

There was a lot of bonus material on disc, thought you might want to see the deleted scenes and the extended scenes  so they are also seperate in the folder.
Also made you subs from the dvd in srt if needed.


Video: 720x400 @bitrate 1800 2pass
Audio: English AC3 5.1 @448
Sample: yes included
Subs: yes english in srt /subs
Bonus: yes deleted scenes and extended scenes @bitrate 1600, same res.[/b]


[url]http://www.imdb.com/title/tt1440292/[/url]


General
Complete name                    : Submarine.2010.DVDRip.XVID.AC3.HQ.Hive-CM8.avi
Format                           : AVI
Format/Info                      : Audio Video Interleave
File size                        : 1.55 GiB
Duration                         : 1h 32mn
Overall bit rate                 : 2 387 Kbps
Writing application              : Nandub v1.0rc2
Writing library                  : Nandub build 1853/release

Video
ID                               : 0
Format                           : MPEG-4 Visual
Format profile                   : Advanced Simple@L5
Format settings, BVOP            : 2
Format settings, QPel            : Yes
Format settings, GMC             : No warppoints
Format settings, Matrix          : Default (H.263)
Muxing mode                      : Packed bitstream
Codec ID                         : XVID
Codec ID/Hint                    : XviD
Duration                         : 1h 32mn
Bit rate                         : 1 929 Kbps
Width                            : 720 pixels
Height                           : 400 pixels
Display aspect ratio             : 16:9
Frame rate                       : 25.000 fps
Color space                      : YUV
Chroma subsampling               : 4:2:0
Bit depth                        : 8 bits
Scan type                        : Progressive
Compression mode                 : Lossy
Bits/(Pixel*Frame)               : 0.268
Stream size                      : 1.25 GiB (81%)
Writing library                  : XviD 1.2.1 (UTC 2008-12-04)

Audio
ID                               : 1
Format                           : AC-3
Format/Info                      : Audio Coding 3
Mode extension                   : CM (complete main)
Codec ID                         : 2000
Duration                         : 1h 32mn
Bit rate mode                    : Constant
Bit rate                         : 448 Kbps
Channel(s)                       : 6 channels
Channel positions                : Front: L C R, Side: L R, LFE
Sampling rate                    : 48.0 KHz
Bit depth                        : 16 bits
Compression mode                 : Lossy
Stream size                      : 298 MiB (19%)
Alignment                        : Split accross interleaves
Interleave, duration             : 40 ms (1.00 video frame)
Interleave, preload duration     : 500 ms


Noah Taylor	... 	Lloyd Tate
Paddy Considine	... 	Graham Purvis
Craig Roberts	... 	Oliver Tate
Yasmin Paige	... 	Jordana Bevan
Sally Hawkins	... 	Jill Tate


15-year-old Oliver Tate has two objectives: To lose his virginity before his next birthday, 
and to extinguish the flame between his mother and an ex-lover who has resurfaced in her life. 


[img]http://img535.imageshack.us/img535/286/86472755.png[/img]
[img]http://img215.imageshack.us/img215/7157/susuf.png[/img]
[img]http://img268.imageshack.us/img268/3319/sususu.png[/img]
[img]http://img8.imageshack.us/img8/2728/susususu.png[/img]
[img]http://img715.imageshack.us/img715/4599/sususususu.png[/img]
[img]http://img143.imageshack.us/img143/237/susususususu.png[/img]
[img]http://img811.imageshack.us/img811/883/sususususususu.png[/img]




Greetz

ViSiON,SANTi,MAGNET,THC,T0XiC,LKRG,IMAGiNE,WBZ,FLAWL3SS,NOVA
D2U,Vik,Rapeseed,SAFC,goldadvance,MEMORY100,KaN1vE,Unevano,
Pinnz,Wayne,cedrict wink,Mr Hive and all P2P groups 
Great Work Guys :D

FYS


CM8@hushmail.com